<?xml version="1.0" encoding="utf-8"?>
<!-- Generator: Adobe Illustrator 24.3.0, SVG Export Plug-In . SVG Version: 6.00 Build 0)  -->
<svg version="1.1" id="bot_2" xmlns="http://www.w3.org/2000/svg" xmlns:xlink="http://www.w3.org/1999/xlink" x="0px" y="0px"
	 viewBox="0 0 20 20" style="enable-background:new 0 0 20 20;" xml:space="preserve">
<style type="text/css">
	.st0{fill:#F0F6FC;}
</style>
<path class="st0" d="M17.9,8.9c-1.1-2.7-3.6-4.6-6.5-4.9c0-0.4,0-0.9-0.1-1.4C11.1,2.4,11.1,2.2,11,2c0.2-0.2,0.3-0.5,0.3-0.8
	c0-0.7-0.5-1.2-1.2-1.2C9.5,0,8.9,0.5,8.9,1.2s0.5,1.2,1.2,1.2c0.2,0,0.3,0,0.5-0.1c0.2,0.5,0.3,1,0.2,1.6c-0.1,0-0.3,0-0.4,0H9.6
	c-3.4,0-6.2,2.1-7.4,5c-0.9,0.4-1.5,1.3-1.5,2.3v1.3c0,1,0.6,1.9,1.4,2.3c1.2,3,4.1,5.1,7.5,5.1h0.9c3.4,0,6.3-2.1,7.5-5.1
	c0.8-0.4,1.4-1.3,1.4-2.3v-1.3C19.3,10.2,18.7,9.3,17.9,8.9z M16.2,12.8c0,2.1-1.7,3.8-3.8,3.8H7.6c-2.1,0-3.8-1.7-3.8-3.8v-1.7
	c0-2.1,1.7-3.8,3.8-3.8h4.9c2.1,0,3.8,1.7,3.8,3.8V12.8z M7.7,9.7L7.7,9.7c0.4,0,0.7,0.3,0.7,0.7v0.8c0,0.4-0.3,0.7-0.7,0.7l0,0
	c-0.4,0-0.7-0.3-0.7-0.7v-0.8C7,10,7.3,9.7,7.7,9.7z M12.2,9.7L12.2,9.7c0.4,0,0.8,0.3,0.8,0.8v0.8c0,0.4-0.3,0.8-0.8,0.8h0
	c-0.4,0-0.8-0.3-0.8-0.8v-0.8C11.5,10,11.8,9.7,12.2,9.7z M12,13.1c0.1-0.2,0-0.4-0.2-0.5c-0.2-0.1-0.4,0-0.5,0.2
	c-0.2,0.7-1,1.1-1.7,0.9c-0.4-0.1-0.7-0.5-0.9-0.9c-0.1-0.2-0.3-0.3-0.5-0.3C8,12.7,7.9,12.9,8,13.1c0.2,0.7,0.7,1.2,1.4,1.4
	c0.2,0.1,0.4,0.1,0.6,0.1C10.9,14.6,11.7,14,12,13.1z"/>
</svg>
